C:\Users\israe\Dropbox\PhDWork\ExperimentalData\subject14\145\P14S145W04_filtered35.mot
nRows=15
nColumns=28

name C:\Users\israe\Dropbox\PhDWork\ExperimentalData\subject14\145\P14S145W04_filtered35.mot
datacolumns 28
datarows 15
range 0.5270000000 0.5410000000
endheader
time	ground_force_1_vx	ground_force_1_vy	ground_force_1_vz	ground_force_1_px	ground_force_1_py	ground_force_1_pz	ground_moment_1_mx	ground_moment_1_my	ground_moment_1_mz	ground_force_2_vx	ground_force_2_vy	ground_force_2_vz	ground_force_2_px	ground_force_2_py	ground_force_2_pz	ground_moment_2_mx	ground_moment_2_my	ground_moment_2_mz	ground_force_3_vx	ground_force_3_vy	ground_force_3_vz	ground_force_3_px	ground_force_3_py	ground_force_3_pz	ground_moment_3_mx	ground_moment_3_my	ground_moment_3_mz
        0.5270000000	        0.0000000000	        0.0000000000	       -0.0000000000	        0.1988394961	        0.0000558755	       -0.3004071324	       -0.0000000000	        0.0000000000	       -0.0000000000	       -0.0000000001	        0.0000000017	       -0.0000000000	        0.2029003516	       -0.0000795827	        0.4543649445	        0.0000000000	       -0.0000000000	       -0.0000000001	       -8.6651266438	      348.9031688515	       -7.7887364160	        0.2076431971	        0.0000770316	        1.3583900146	       70.0944798769	        5.7037712732	        9.4505344763	
        0.5280000000	        0.0000000000	        0.0000000000	       -0.0000000000	        0.1988394961	        0.0000558755	       -0.3004071324	       -0.0000000000	        0.0000000000	       -0.0000000000	       -0.0000000001	        0.0000000021	       -0.0000000001	        0.2029003516	       -0.0000795827	        0.4543649445	        0.0000000000	       -0.0000000000	       -0.0000000002	       -8.6130671110	      352.7936088997	       -8.3173424964	        0.2076431971	        0.0000770316	        1.3583900146	       70.9853980539	        5.7662543127	        9.5284933445	
        0.5290000000	        0.0000000000	        0.0000000000	       -0.0000000000	        0.1988394961	        0.0000558755	       -0.3004071324	       -0.0000000000	        0.0000000000	       -0.0000000000	       -0.0000000001	        0.0000000026	       -0.0000000001	        0.2029003516	       -0.0000795827	        0.4543649445	        0.0000000000	       -0.0000000000	       -0.0000000002	       -8.5773930458	      356.7484603852	       -8.8712336586	        0.2076431971	        0.0000770316	        1.3583900146	       71.8880077665	        5.8337809592	        9.6094514490	
        0.5300000000	       -0.0000000000	        0.0000000000	       -0.0000000000	        0.1988394961	        0.0000558755	       -0.3004071324	       -0.0000000000	        0.0000000000	       -0.0000000000	       -0.0000000001	        0.0000000031	       -0.0000000002	        0.2029003516	       -0.0000795827	        0.4543649445	        0.0000000000	       -0.0000000000	       -0.0000000002	       -8.5595171838	      360.7655691114	       -9.4484149305	        0.2076431971	        0.0000770316	        1.3583900146	       72.8028941904	        5.9068233422	        9.6937448875	
        0.5310000000	       -0.0000000000	        0.0000000000	        0.0000000000	        0.1988394961	        0.0000558755	       -0.3004071324	       -0.0000000000	        0.0000000000	       -0.0000000000	       -0.0000000002	        0.0000000035	       -0.0000000003	        0.2029003516	       -0.0000795827	        0.4543649445	        0.0000000000	       -0.0000000000	       -0.0000000003	       -8.5599155152	      364.8416714693	      -10.0473143325	        0.2076431971	        0.0000770316	        1.3583900146	       73.7305177297	        5.9858555578	        9.7813773132	
        0.5320000000	       -0.0000000000	        0.0000000000	        0.0000000000	        0.1988394961	        0.0000558755	       -0.3004071324	       -0.0000000000	        0.0000000000	       -0.0000000000	       -0.0000000002	        0.0000000037	       -0.0000000004	        0.2029003516	       -0.0000795827	        0.4543649445	        0.0000000000	       -0.0000000000	       -0.0000000003	       -8.5777466014	      368.9746267946	      -10.6671881213	        0.2076431971	        0.0000770316	        1.3583900146	       74.6711324726	        6.0710744785	        9.8720847562	
        0.5330000000	       -0.0000000000	        0.0000000000	        0.0000000000	        0.1988394961	        0.0000558755	       -0.3004071324	       -0.0000000000	        0.0000000000	       -0.0000000000	       -0.0000000003	        0.0000000038	       -0.0000000006	        0.2029003516	       -0.0000795827	        0.4543649445	        0.0000000000	       -0.0000000000	       -0.0000000003	       -8.6117638388	      373.1644017639	      -11.3080746349	        0.2076431971	        0.0000770316	        1.3583900146	       75.6247789600	        6.1623525938	        9.9654200440	
        0.5340000000	       -0.0000000000	        0.0000000000	        0.0000000000	        0.1988394961	        0.0000558755	       -0.3004071324	       -0.0000000000	        0.0000000000	       -0.0000000000	       -0.0000000003	        0.0000000035	       -0.0000000007	        0.2029003516	       -0.0000795827	        0.4543649445	        0.0000000001	       -0.0000000000	       -0.0000000003	       -8.6615511607	      377.4121684540	      -11.9703323672	        0.2076431971	        0.0000770316	        1.3583900146	       76.5912680569	        6.2593945319	       10.0607679874	
        0.5350000000	       -0.0000000000	        0.0000000000	        0.0000000000	        0.1988394961	        0.0000558755	       -0.3004071324	       -0.0000000000	        0.0000000000	       -0.0000000000	       -0.0000000003	        0.0000000028	       -0.0000000009	        0.2029003516	       -0.0000795827	        0.4543649445	        0.0000000001	       -0.0000000001	       -0.0000000002	       -8.7277876275	      381.7189389274	      -12.6544733001	        0.2076431971	        0.0000770316	        1.3583900146	       77.5702044581	        6.3618178253	       10.1572814791	
        0.5360000000	       -0.0000000000	        0.0000000000	        0.0000000000	        0.1988394961	        0.0000558755	       -0.3004071324	       -0.0000000000	        0.0000000000	       -0.0000000000	       -0.0000000003	        0.0000000015	       -0.0000000010	        0.2029003516	       -0.0000795827	        0.4543649445	        0.0000000001	       -0.0000000001	       -0.0000000001	       -8.8116722661	      386.0837332314	      -13.3615470284	        0.2076431971	        0.0000770316	        1.3583900146	       78.5610180838	        6.4690846805	       10.2538969843	
        0.5370000000	       -0.0000000000	        0.0000000000	        0.0000000000	        0.1988394961	        0.0000558755	       -0.3004071324	       -0.0000000000	        0.0000000000	       -0.0000000000	       -0.0000000003	        0.0000000000	       -0.0000000012	        0.2029003516	       -0.0000795827	        0.4543649445	        0.0000000000	       -0.0000000001	        0.0000000001	       -8.9141543174	      390.5019291841	      -14.0932690199	        0.2076431971	        0.0000770316	        1.3583900146	       79.5629730515	        6.5804444395	       10.3496401423	
        0.5380000000	       -0.0000000000	        0.0000000000	        0.0000000000	        0.1988394961	        0.0000558755	       -0.3004071324	       -0.0000000000	       -0.0000000000	       -0.0000000000	       -0.0000000002	        0.0000000000	       -0.0000000012	        0.2029003516	       -0.0000795827	        0.4543649445	        0.0000000000	       -0.0000000000	        0.0000000003	       -9.0354149327	      394.9663925165	      -14.8515053014	        0.2076431971	        0.0000770316	        1.3583900146	       80.5753864967	        6.6950528694	       10.4439043443	
        0.5390000000	       -0.0000000000	        0.0000000000	        0.0000000000	        0.1988394961	        0.0000558755	       -0.3004071324	       -0.0000000000	       -0.0000000000	       -0.0000000000	       -0.0000000000	        0.0000000000	       -0.0000000013	        0.2029003516	       -0.0000795827	        0.4543649445	       -0.0000000000	       -0.0000000000	        0.0000000006	       -9.1751797935	      399.4715396895	      -15.6377481318	        0.2076431971	        0.0000770316	        1.3583900146	       81.5980607437	        6.8121897760	       10.5363336530	
        0.5400000000	       -0.0000000000	        0.0000000000	        0.0000000000	        0.1988394961	        0.0000558755	       -0.3004071324	       -0.0000000000	       -0.0000000000	       -0.0000000000	        0.0000000002	        0.0000000000	       -0.0000000012	        0.2029003516	       -0.0000795827	        0.4543649445	       -0.0000000000	       -0.0000000000	        0.0000000010	       -9.3334442774	      404.0160937593	      -16.4526945248	        0.2076431971	        0.0000770316	        1.3583900146	       82.6314409498	        6.9313961579	       10.6266235198	
        0.5410000000	       -0.0000000000	        0.0000000000	        0.0000000000	        0.1988394961	        0.0000558755	       -0.3004071324	       -0.0000000000	       -0.0000000000	       -0.0000000000	        0.0000000004	        0.0000000000	       -0.0000000009	        0.2029003516	       -0.0000795827	        0.4543649445	       -0.0000000001	        0.0000000000	        0.0000000016	       -9.5106086678	      408.6020983177	      -17.2962696490	        0.2076431971	        0.0000770316	        1.3583900146	       83.6763027627	        7.0525354004	       10.7145254007	
